<?xml version="1.0" encoding="UTF-8" standalone="no"?>
<!-- Created with Inkscape (http://www.inkscape.org/) -->

<svg
   xmlns:dc="http://purl.org/dc/elements/1.1/"
   xmlns:cc="http://creativecommons.org/ns#"
   xmlns:rdf="http://www.w3.org/1999/02/22-rdf-syntax-ns#"
   xmlns:svg="http://www.w3.org/2000/svg"
   xmlns="http://www.w3.org/2000/svg"
   xmlns:sodipodi="http://sodipodi.sourceforge.net/DTD/sodipodi-0.dtd"
   xmlns:inkscape="http://www.inkscape.org/namespaces/inkscape"
   version="1.1"
   id="svg3713"
   width="3000"
   height="400"
   viewBox="0 0 3000 400"
   sodipodi:docname="becode.svg"
   inkscape:version="0.92.3 (2405546, 2018-03-11)">
  <metadata
     id="metadata3719">
    <rdf:RDF>
      <cc:Work
         rdf:about="">
        <dc:format>image/svg+xml</dc:format>
        <dc:type
           rdf:resource="http://purl.org/dc/dcmitype/StillImage" />
        <dc:title></dc:title>
      </cc:Work>
    </rdf:RDF>
  </metadata>
  <defs
     id="defs3717" />
  <sodipodi:namedview
     pagecolor="#ffffff"
     bordercolor="#666666"
     borderopacity="1"
     objecttolerance="10"
     gridtolerance="10"
     guidetolerance="10"
     inkscape:pageopacity="0"
     inkscape:pageshadow="2"
     inkscape:window-width="1920"
     inkscape:window-height="1017"
     id="namedview3715"
     showgrid="false"
     showguides="true"
     inkscape:guide-bbox="true"
     inkscape:zoom="1.5963898"
     inkscape:cx="1396.3277"
     inkscape:cy="279.56243"
     inkscape:window-x="-8"
     inkscape:window-y="100"
     inkscape:window-maximized="1"
     inkscape:current-layer="svg3713">
    <sodipodi:guide
       position="1500,481.92"
       orientation="1,0"
       id="guide3723"
       inkscape:locked="false"
       inkscape:label=""
       inkscape:color="rgb(0,0,255)" />
    <sodipodi:guide
       position="1448.2678,322.60291"
       orientation="0,1"
       inkscape:locked="false"
       id="guide3772" />
  </sodipodi:namedview>
  <path
     sodipodi:nodetypes="csssssssssssssssssssssssscssscssssscssssssssscsssscccc"
     inkscape:connector-curvature="0"
     d="m 3000.7837,157.80761 c -25.2606,9.9781 -39.5915,20.92449 -61.55,12.95983 -34.7973,-12.62152 -29.5692,-36.06558 -49.7855,-33.25373 -22.3914,3.11438 -9.2334,28.0258 -59.0762,27.61435 -35.6108,-0.29397 -32.6257,-20.0974 -63.7835,-24.48229 -33.3352,-4.6913 -36.0581,18.13798 -75.0406,16.44639 -55.2655,-2.39817 -46.7663,-31.51837 -67.7386,-28.02581 -22.4585,3.74005 -23.3184,28.24076 -69.9401,31.78429 -26.7345,2.03198 -36.7771,-15.83841 -61.5818,-17.61017 -24.8047,-1.77177 -37.8473,17.61864 -64.84,13.11781 -27.3929,-4.56757 -28.7396,-28.17631 -40.7505,-26.57647 -18.4294,2.45476 -18.3071,28.36666 -62.6382,31.28378 -23.2536,1.53016 -8.6285,-22.0248 -37.3851,-17.71765 -33.5813,5.02979 -36.3543,15.62023 -71.623,11.75751 -30.7585,-3.36875 -34.6898,-26.91476 -50.9882,-23.53345 -14.9039,3.092 -24.0269,18.97394 -55.8735,22.49557 -56.1933,6.21392 -51.5685,-22.07399 -69.0099,-18.863 -22.7546,4.18917 -22.1338,26.26642 -65.2328,25.34209 -67.5788,-1.44934 -61.0997,-26.469 -87.6762,-28.24076 -26.5765,-1.77177 -39.752,19.9474 -75.363,19.66749 -52.3484,-0.41146 -48.4885,-19.6127 -58.9687,-15.62347 -20.08,7.64335 -32.671,11.62986 -52.1858,9.78923 -38.3437,-3.61658 -36.9237,-23.73771 -48.3196,-20.20485 -27.4077,8.49668 -39.5701,23.12279 -61.8337,25.84257 -54.8601,6.70185 -39.1456,-22.7073 -58.8613,-13.02876 -22.3231,10.95855 -36.9613,16.35734 -57.8418,10.00418 -42.8049,-16.37579 -36.3165,-30.36501 -52.4375,-23.01451 -23.3553,10.64903 -25.4139,24.31044 -51.0587,27.07697 -50.6615,5.46529 -44.1367,-18.01399 -58.6832,-12.07993 -14.9392,6.09424 -16.0799,20.01687 -64.0876,13.65518 -30.1199,-7.08706 -25.9638,-29.08612 -44.0976,-26.98793 -16.6314,1.92435 -18.1106,22.60304 -56.6964,26.14657 -24.9515,2.29143 -24.6482,-21.55771 -37.2071,-17.28775 -32.3053,10.98361 -27.5009,23.21661 -52.0965,18.4331 -24.5127,-4.76735 -35.137,-29.81457 -52.4377,-25.52016 -16.43533,4.07959 -12.29485,26.36152 -51.27355,29.90505 -42.5224,0 -21.36868,-19.27445 -58.57575,-15.73093 -45.89225,4.37069 -40.19843,19.43981 -83.27296,17.71765 -51.91845,-2.07575 -47.96857,-31.47563 -65.55522,-28.34823 -25.35298,4.50847 -24.05235,33.44857 -72.64233,33.66353 -35.61169,0.15754 -30.12001,-24.80472 -63.78351,-24.80472 -33.6636,0 -38.97882,23.03295 -77.95772,21.26118 -38.9788,-1.77176 -25.05137,-36.89286 -46.06589,-33.66352 -24.33785,3.74004 -30.81696,26.98792 -76.18586,29.90504 -26.75634,1.72037 -27.52527,-17.91415 -52.32997,-19.68591 -24.8047,-1.77177 -35.1712,25.21616 -61.063,16.35734 -32.15583,-5.10035 -25.35113,-25.82448 -47.01469,-22.38809 -19.44888,3.08509 -8.58853,23.12197 -61.06296,24.15985 -23.29933,0.46083 -26.16807,-25.78328 -40.5172,-23.35537 -33.47993,5.66489 -24.73096,19.30777 -59.828522,24.50073 C 12.357219,169.70619 13.563294,122.1299 -0.8744358,125.52283 L 1.2528269,430.62642 2999.7507,431.37359 Z"
     style="fill:#101a23;fill-opacity:1;stroke:none;stroke-width:1px;stroke-linecap:butt;stroke-linejoin:miter;stroke-opacity:1"
     id="path3727-4-9-1-1" />
  <path
     sodipodi:nodetypes="csssssssssssssssssssssssscssscssssscssssssssscsssscccc"
     inkscape:connector-curvature="0"
     d="m 3000.2079,176.61588 c -25.2606,9.9781 -43.9764,8.39623 -86.6065,4.19005 -36.8368,-3.63458 -36.4598,-37.31841 -56.6761,-34.50656 -22.3914,3.11438 -31.7843,34.91635 -81.6271,34.5049 -35.6108,-0.29397 -25.1087,-20.0974 -58.7722,-20.0974 -33.6636,0 -37.9373,12.50026 -76.9198,10.80867 -55.2655,-2.39817 -46.7663,-31.51837 -67.7386,-28.02581 -22.4585,3.74005 -23.3184,28.24076 -69.9401,31.78429 -26.7345,2.03198 -36.7771,-15.83841 -61.5818,-17.61017 -24.8047,-1.77177 -37.8473,17.61864 -64.84,13.11781 -27.3929,-4.56757 -28.7396,-28.17631 -40.7505,-26.57647 -18.4294,2.45476 -18.3071,28.36666 -62.6382,31.28378 -23.2536,1.53016 -8.6285,-22.0248 -37.3851,-17.71765 -33.5813,5.02979 -36.3543,15.62023 -71.623,11.75751 -30.7585,-3.36875 -34.6898,-26.91476 -50.9882,-23.53345 -14.9039,3.092 -24.0269,18.97394 -55.8735,22.49557 -56.1933,6.21392 -51.5685,-22.07399 -69.0099,-18.863 -22.7546,4.18917 -22.1338,26.26642 -65.2328,25.34209 -67.5788,-1.44934 -61.0997,-26.469 -87.6762,-28.24076 -26.5765,-1.77177 -39.752,19.9474 -75.363,19.66749 -52.3484,-0.41146 -48.4885,-19.6127 -58.9687,-15.62347 -20.08,7.64335 -33.9238,13.5091 -53.4386,11.66847 -38.3437,-3.61658 -43.1879,-29.37543 -54.5838,-25.84257 -27.4077,8.49668 -32.0531,26.88127 -54.3167,29.60105 -54.8601,6.70185 -39.1456,-22.7073 -58.8613,-13.02876 -22.3231,10.95855 -36.9613,16.35734 -57.8418,10.00418 -42.8049,-16.37579 -40.7014,-30.99142 -56.8224,-23.64092 -23.3553,10.64903 -27.2932,20.55196 -52.938,23.31849 -50.6615,5.46529 -41.0046,-20.51965 -55.5511,-14.58559 -14.9392,6.09424 -12.9478,26.90742 -60.9555,20.54573 -30.1199,-7.08706 -25.9638,-29.08612 -44.0976,-26.98793 -16.6314,1.92435 -18.1106,22.60304 -56.6964,26.14657 -24.9515,2.29143 -24.6482,-21.55771 -37.2071,-17.28775 -32.3053,10.98361 -27.5009,23.21661 -52.0965,18.4331 -24.51263,-4.76735 -35.13695,-29.81457 -52.4377,-25.52016 -16.43531,4.07959 -12.29483,26.36152 -51.27353,29.90505 -42.5224,0 -21.36868,-19.27445 -58.57575,-15.73093 -45.89225,4.37069 -40.19843,19.43981 -83.27296,17.71765 -51.91845,-2.07575 -47.96857,-31.47563 -65.55522,-28.34823 -25.35298,4.50847 -24.05235,33.44857 -72.64233,33.66353 -35.61169,0.15754 -30.12001,-24.80472 -63.78351,-24.80472 -33.6636,0 -38.97882,23.03295 -77.95772,21.26118 -38.9788,-1.77176 -25.05137,-36.89286 -46.06589,-33.66352 -24.33785,3.74004 -30.81696,26.98792 -76.18586,29.90504 -26.75634,1.72037 -27.52527,-17.91415 -52.32997,-19.68591 -24.8047,-1.77177 -35.1712,25.21616 -61.063,16.35734 -32.15583,-5.10035 -25.35113,-25.82448 -47.01469,-22.38809 -19.44888,3.08509 -8.58853,23.12197 -61.06296,24.15985 -23.29933,0.46083 -26.16807,-25.78328 -40.517192,-23.35537 -33.479936,5.66489 -24.559779,28.36345 -59.828524,24.50073 -30.758507,-3.36875 -21.40906,-38.41677 -35.84679336,-35.02384 0,0 1.72270252,204.0997 2.07662626,292.55945 L 2999.7507,431.37359 Z"
     style="fill:#293b47;fill-opacity:1;stroke:none;stroke-width:1px;stroke-linecap:butt;stroke-linejoin:miter;stroke-opacity:1"
     id="path3727-4-9-1" />
  <a
     id="a3744">
    <g
       id="g3750">
      <g
         id="g3755" />
    </g>
  </a>
  <path
     sodipodi:nodetypes="cssssssscssssscssssssssssssssssssssssssssssssssssscccc"
     inkscape:connector-curvature="0"
     d="m -0.77356,206.918 c 34.234429,-6.35317 20.252419,-30.03753 62.475188,-44.72401 29.672925,-10.32123 36.169254,41.80689 71.604552,38.26337 35.4353,-3.54352 27.61435,-31.99925 61.27785,-31.99925 33.6636,0 43.57867,29.4936 82.55757,27.72183 38.9788,-1.77176 21.68401,-22.81163 54.58386,-33.03712 34.43472,-10.70253 49.62772,23.85587 76.20422,27.3994 26.5764,3.54353 36.15073,-20.2233 60.95543,-21.99506 24.8047,-1.77177 50.85003,41.39544 76.74183,32.53662 25.8917,-8.85883 20.87756,-28.95275 50.14669,-35.34627 20.44094,-4.46509 47.12218,26.48744 70.15518,30.03097 23.0329,3.54353 19.27753,-13.88143 56.17753,-18.97048 33.6375,-4.63909 24.45239,17.49947 59.72113,13.63675 30.75852,-3.36875 45.74679,-25.75331 84.1881,-28.54476 28.8797,-2.09712 19.7933,30.22749 44.5981,33.77102 42.5224,0 20.83059,-14.86333 60.86641,-23.24789 34.02472,-7.12568 18.53373,20.91038 61.47442,24.71567 33.1261,2.93555 45.6308,-25.22397 72.0159,-28.86718 30.399,-4.19743 20.6839,19.52113 55.3176,27.81088 32.3032,7.73191 34.8341,-9.30878 60.848,-17.50272 15.3624,-4.83886 18.3644,4.96205 43.416,4.77792 25.9892,-0.19102 35.1749,-9.39155 55.2102,-10.18224 23.8799,-0.94241 18.7617,17.04195 61.2073,7.05017 39.19,-9.22541 31.3708,-24.62514 53.2235,-22.42496 27.9608,2.81517 54.4532,37.23632 77.8871,35.68713 47.2982,-3.12685 35.4932,-25.29226 53.0639,-23.01451 28.993,3.75848 22.8479,16.12626 46.0474,13.92229 41.8254,-3.97344 32.5182,-19.5969 62.4417,-27.74027 22.2246,-6.0482 18.2,26.10487 74.1101,23.6778 51.9274,-2.25418 49.621,-22.94316 76.0448,-20.09738 29.082,3.13206 10.5936,21.35021 35.3983,24.89374 24.8047,3.54353 33.7815,-17.0645 64.7692,-19.16699 33.9076,-2.3006 23.3876,24.49367 48.338,22.19158 24.5127,-2.2617 31.5521,-20.36043 49.3058,-21.76168 23.5776,-1.86092 13.4238,20.06157 52.5263,21.76168 42.4823,1.84706 38.6955,-10.41268 77.3681,-14.4781 29.8186,-3.13465 30.1015,22.92546 61.9749,16.46482 42.2497,-8.56389 27.9194,-16.73304 63.676,-25.21617 30.0726,-7.13459 39.7127,32.82216 75.148,29.27864 35.4353,-3.54353 48.2861,-22.29907 81.9496,-22.29907 33.6636,0 0.2034,15.30143 39.12,18.12912 79.0693,5.7452 68.3428,-26.66016 99.9375,-25.52015 29.5072,1.06469 15.1566,21.3502 41.7331,24.89373 26.5764,3.54353 37.5478,-14.15567 62.3525,-15.92743 24.8047,-1.77177 35.0775,25.25552 62.3158,22.62148 27.8822,-2.69632 20.2694,-27.7585 55.1582,-32.41071 29.5199,-3.9363 17.9847,25.00122 41.0177,28.54475 23.0329,3.54353 14.8926,-10.74936 51.7926,-15.83841 33.6374,-4.63909 15.1636,15.20876 50.4323,11.34604 30.7585,-3.36875 13.2898,-12.44265 45.8694,-19.98991 12.9632,-3.003 8.0887,19.96332 15.9802,26.63892 L 2999.7507,431.37359 1.2528269,430.62642 Z"
     style="fill:#1e2f39;fill-opacity:1;stroke:none;stroke-width:1px;stroke-linecap:butt;stroke-linejoin:miter;stroke-opacity:1"
     id="path3727-4-9-2" />
  <path
     sodipodi:nodetypes="csssssssssssssscssscssssssssssscssscssssscsssssssscccc"
     inkscape:connector-curvature="0"
     d="m 2999.9515,194.3816 c 0,0 -10.9251,-11.31082 -20.6398,-6.08059 -25.7827,13.88115 -31.0464,-19.33526 -46.2988,-16.06118 -26.8674,5.76736 -38.9936,22.99272 -53.6928,23.24545 -14.6992,0.25272 -25.1124,-17.94611 -40.3158,-17.20189 -36.7239,1.79766 -42.7678,20.34358 -65.1141,22.40903 -42.6837,3.94521 -13.4994,-21.8903 -58.9617,-20.44337 -50.7845,1.61634 -53.9065,18.53912 -97.4421,15.68897 -43.4534,-2.84477 -55.9191,-31.58447 -65.8808,-29.36727 -50.58,11.25774 -56.2145,32.41069 -91.6498,28.86717 -35.4353,-3.54352 -32.6257,-22.60305 -66.2892,-22.60305 -33.6636,0 -32.9296,22.60305 -71.9085,20.83128 -38.9788,-1.77176 -43.4207,-19.7925 -64.6065,-18.00319 -36.866,3.11362 -43.3669,17.40343 -71.8193,18.00319 -48.1068,1.01406 -44.2941,-17.71765 -69.0988,-19.48941 -24.8047,-1.77177 -30.8048,30.12 -56.6966,21.26118 -25.8917,-8.85883 -6.5199,-34.76996 -40.7505,-26.57647 -33.2784,7.96555 -38.9788,17.71764 -62.0118,21.26117 -23.0329,3.54353 -18.0247,-12.6286 -54.9247,-17.71765 -33.6375,-4.63909 -22.9888,23.1305 -58.4683,23.03295 -30.1199,-7.08706 -19.048,-14.67994 -40.9655,-24.15986 -14.5607,-6.29785 -35.3068,4.48838 -47.7302,13.72579 -18.189,13.52435 -32.9468,16.67223 -73.3947,7.44636 -26.1357,-5.96136 -37.4432,-23.51421 -47.0669,-21.63892 -22.9419,4.47053 -35.4168,39.93082 -82.0385,36.90623 -26.5796,-1.72435 -46.1329,4.12121 -75.363,-2.88339 -35.9031,-8.60372 -52.7834,-41.60227 -67.7385,-32.53663 -23.0345,13.96327 -28.2069,25.99073 -59.0763,26.07597 -40.2381,0.11112 -32.3974,-18.73575 -47.0668,-12.68789 -17.8893,7.37533 -30.1739,16.85866 -61.2073,18.32562 -55.2063,2.60961 -67.9606,-38.36764 -87.6763,-28.6891 -22.3231,10.95855 -30.6972,16.98375 -51.5777,10.63059 -27.771,-8.85883 -31.9759,-22.94453 -49.3054,-19.25602 -26.4874,5.63772 -34.8065,18.07695 -57.9493,20.81283 -40.5725,4.79635 -31.2653,-12.70635 -54.2983,-12.70635 -23.0329,0 -12.9477,18.76405 -68.4724,11.77595 -30.1199,-7.08706 -18.14756,-21.35021 -44.72406,-21.35021 -26.5764,0 -31.26529,19.47097 -56.06999,23.0145 -24.8047,3.54353 -17.13118,-15.29358 -47.22971,-14.15568 -34.09701,1.28906 -18.73114,22.59019 -43.32674,17.80668 -24.5126,-4.76735 -28.48722,-25.31404 -52.43767,-20.50885 -31.31675,6.28309 -15.4269,16.96532 -54.4056,20.50885 -42.5224,0 -25.12716,-24.28576 -62.33423,-20.74224 -45.89225,4.37069 -25.71664,26.05754 -68.23904,18.97048 -42.52225,-7.08706 -45.19824,-29.57553 -70.56653,-21.45768 -44.29415,14.17411 -32.19572,30.3165 -67.63102,26.77298 -35.4353,-3.54353 -30.12001,-24.80472 -63.78351,-24.80472 -33.6636,0 -38.97882,23.03295 -77.95772,21.26118 -38.9788,-1.77176 -27.72322,-24.05209 -48.57154,-19.88242 -53.152873,10.63059 -47.103709,16.33889 -73.680209,19.88242 -26.5764,3.54353 -16.876246,-12.27643 -41.68094607,-14.04819 L 1.2528269,430.62642 2999.7507,431.37359 Z"
     style="fill:#101a23;fill-opacity:1;stroke:none;stroke-width:1px;stroke-linecap:butt;stroke-linejoin:miter;stroke-opacity:1"
     id="path3727-4-9-9" />
  <path
     style="fill:#255989;fill-opacity:1;stroke:none;stroke-width:1.62242103px;stroke-linecap:butt;stroke-linejoin:miter;stroke-opacity:1"
     d="m 1451.9242,71.05883 c 21.0005,-11.559462 34.1361,-12.034377 70.1251,-6.351912 28.9648,4.573382 47.2584,9.908982 57.4214,35.316632 10.1632,25.40767 -7.6833,46.43197 8.3845,56.40501 13.4121,8.32474 39.7114,-2.22067 52.3398,-38.87373 -5.7283,-2.75195 -9.5521,3.59224 -18.0394,-1.52446 -11.3619,-6.84979 -7.1141,-17.27719 -7.1141,-17.27719 0,0 8.8926,4.06522 14.9903,3.55706 6.0979,-0.50814 12.5621,4.00482 13.9744,10.16306 2.9368,-4.25891 3.0143,-10.2103 16.0069,-7.36821 8.1304,1.77853 15.4986,-0.25407 15.4986,-0.25407 -2.1197,24.72599 -20.0872,13.96482 -30.9973,14.48234 0,0 -1.0515,55.3593 -19.818,77.74744 -24.6806,29.44352 -76.2292,17.21743 -110.7775,16.00684 -41.1538,-1.44205 -88.3106,-17.31399 -87.4023,-49.29085 0.9918,-34.9136 0.1088,-78.8123 25.4076,-92.73796 z"
     id="path4671"
     inkscape:connector-curvature="0"
     sodipodi:nodetypes="sscscscccsccssss" />
  <path
     style="fill:#2a3c48;fill-opacity:1;stroke:none;stroke-width:1px;stroke-linecap:butt;stroke-linejoin:miter;stroke-opacity:1"
     d="m 3000.3771,213.88738 c -28.2753,-1.17814 -34.4528,-33.82634 -56.3772,-34.45275 -32.0321,-0.9152 -55.7509,27.5622 -85.8187,25.68296 -30.0679,-1.87924 -38.7439,-43.34073 -70.7847,-23.80372 -25.683,15.66033 -35.0793,33.19992 -64.5207,33.19992 -29.4414,0 -40.7169,-29.44143 -65.7734,-28.81502 -25.0565,0.62642 -22.5509,13.7811 -63.2677,13.15469 -40.7169,-0.62642 -34.4396,-27.93928 -55.1244,-20.67166 -23.1773,8.14337 -19.3011,19.55888 -49.4866,23.80372 -40.0905,5.63772 -50.7395,-14.40752 -65.1471,-8.7698 -19.9107,7.79111 -35.0792,20.04524 -59.143,15.66035 -24.0638,-4.3849 -36.0719,-31.94709 -52.9851,-21.29807 -16.9131,10.64902 -36.5034,23.80439 -58.7394,23.80372 -18.166,-3.13207 -26.3094,-49.48667 -53.2452,-34.45275 -26.9358,15.03392 -48.2338,38.83764 -76.4224,36.33199 -28.1886,-2.50566 -21.9245,-24.43013 -43.8489,-25.05654 -32.0321,-0.9152 -48.2339,18.16599 -78.3017,16.28675 -30.0679,-1.87924 -30.0678,-45.72818 -61.3885,-25.05654 -31.3207,20.67164 -51.9924,26.30937 -81.4338,26.30937 -29.4414,0 -36.332,-21.29806 -61.3885,-20.67165 -25.0565,0.62642 -21.9245,16.91317 -62.6413,16.28676 -40.7169,-0.62642 -45.0886,-32.32417 -65.7734,-25.05655 -23.1773,8.14337 -16.7955,22.06453 -46.981,26.30937 -40.0905,5.63772 -46.3546,-16.91317 -60.7622,-11.27545 -19.9107,7.79111 -36.9584,16.91317 -61.0222,12.52828 -24.0638,-4.3849 -37.3247,-35.70557 -54.2379,-25.05655 -16.9131,10.64902 -20.3601,16.28743 -45.7281,21.92448 -35.3025,7.84463 -45.7281,-12.52827 -59.5092,-7.51696 -18.7925,6.26413 -27.5623,13.15468 -49.4868,10.64903 -20.5379,-2.34718 -23.1797,-21.36187 -40.0903,-20.67164 -13.8972,0.56723 -16.3121,15.83346 -35.0793,17.53957 -20.6716,1.87924 -20.2065,-28.18861 -37.5847,-28.18861 -30.9155,0 -25.074,23.51469 -48.2339,25.05654 -25.8242,1.71923 -24.602,-16.62657 -38.8376,-14.4075 -32.1482,5.0113 -25.683,16.28674 -51.9923,15.03391 -26.3094,-1.25283 -17.1505,-22.55088 -39.46413,-20.04523 -33.27902,3.73699 -26.30932,21.92448 -45.72814,20.67165 -19.41881,-1.25283 -21.92446,-15.03393 -38.21121,-15.03393 -16.28675,0 -25.68296,19.41883 -51.99232,18.79241 -18.166,-3.13207 -33.82636,-40.71688 -60.76216,-25.68296 -26.9358,15.03392 -40.09043,22.55089 -68.27903,20.04524 -28.1886,-2.50566 -22.55091,-16.91317 -44.47531,-17.53958 -32.0321,-0.9152 -48.2339,18.16599 -78.3017,16.28675 -30.0679,-1.87924 -39.9968,-35.82376 -72.03753,-16.28675 -25.68298,15.66033 -41.34337,17.53958 -70.78478,17.53958 -29.4414,0 -36.332,-21.29806 -61.3885,-20.67165 -25.0565,0.62642 -21.9245,16.91317 -62.6413,16.28676 -40.7169,-0.62642 -45.71501,-26.06004 -66.39981,-18.79242 -23.1773,8.14337 -16.16909,15.8004 -46.35459,20.04524 -40.0905,5.63772 -46.3546,-16.91317 -60.7622,-11.27545 -19.9107,7.79111 -36.9584,16.91317 -61.0222,12.52828 -24.0638,-4.3849 -37.3247,-30.69426 -54.2379,-20.04524 -16.9131,10.64902 -34.624234,18.79308 -56.8601711,18.79241 L 1.2528269,430.62642 2999.7507,429.37359 Z"
     id="path3774-9"
     inkscape:connector-curvature="0"
     sodipodi:nodetypes="cscssssssssscscscssssssssssssssssssssscscscssssssssscccc" />
  <path
     sodipodi:nodetypes="cssssssscssscscssssssssscssscsscsscssssssssscssscscccc"
     inkscape:connector-curvature="0"
     d="m 2999.8581,248.22884 c -65.5551,-8.85882 -55.8284,-46.07585 -95.6751,-37.20705 -50.58,11.25774 -33.6636,33.66352 -69.0989,30.12 -35.4353,-3.54352 -30.12,-30.12001 -63.7835,-30.12001 -33.6636,0 -35.4353,30.12001 -74.4142,28.34824 -38.9788,-1.77176 -50.0223,-37.8332 -70.8706,-33.66353 -53.1528,10.63059 -38.9787,30.12 -65.5552,33.66353 -26.5764,3.54353 -44.2941,-17.71765 -69.0988,-19.48941 -24.8047,-1.77177 -30.8048,30.12 -56.6966,21.26118 -25.8917,-8.85883 -6.5199,-34.76996 -40.7505,-26.57647 -33.2784,7.96555 -38.9788,17.71764 -62.0118,21.26117 -23.0329,3.54353 -18.0247,-12.6286 -54.9247,-17.71765 -33.6375,-4.63909 -22.9888,23.1305 -58.4683,23.03295 -30.1199,-7.08706 0.408,-43.83954 -37.2071,-35.4353 -38.2759,8.5519 -24.8046,28.34824 -49.6094,31.89177 -42.5224,0 -19.4894,-15.94588 -60.24,-19.48941 -45.9266,-3.99361 -28.3482,23.03294 -70.8706,15.94588 -42.5223,-7.08706 -46.0658,-28.34824 -72.6423,-30.12 -26.5765,-1.77177 -33.6635,40.75059 -69.0988,37.20707 -35.4353,-3.54353 -37.2071,-21.26119 -70.8706,-21.26119 -33.6636,0 -30.0862,13.46246 -69.0989,14.17412 -40.2316,0.73389 -55.7162,-32.5075 -67.1121,-28.97464 -27.4077,8.49668 -34.5588,24.37562 -56.8224,27.0954 -54.8601,6.70185 -42.2776,-22.7073 -61.9933,-13.02876 -22.3231,10.95855 -34.4557,18.86299 -55.3362,12.50983 -42.8049,-16.37579 -33.1844,-40.38761 -49.3054,-33.03712 -23.3553,10.64903 -34.8065,31.85805 -57.9493,34.59393 -40.5725,4.79635 -31.2653,-12.70635 -54.2983,-12.70635 -23.0329,0 -12.9477,18.76405 -68.4724,11.77595 -30.1199,-7.08706 -10.6306,-30.12 -37.2071,-30.12 -26.5764,0 -31.8917,30.12 -56.6964,33.66353 -24.8047,3.54353 -7.4047,-29.16746 -37.2071,-24.80471 -34.0657,-1.94817 -35.6443,31.35998 -60.2399,26.57647 -24.5126,-4.76735 -4.0571,-47.86492 -44.2943,-33.66353 -30.11986,10.63059 -14.17406,30.12 -53.15276,33.66353 -42.5224,0 -19.48944,-23.03293 -56.69651,-19.48941 -45.89225,4.37069 -40.75056,24.80471 -83.27296,17.71765 -42.52225,-7.08706 -40.18693,-36.46608 -65.55522,-28.34823 -44.29415,14.17411 -37.20703,37.20705 -72.64233,33.66353 -35.4353,-3.54353 -30.12001,-24.80472 -63.78351,-24.80472 -33.6636,0 -38.97882,23.03295 -77.95772,21.26118 -38.9788,-1.77176 -25.21757,-37.83319 -46.06589,-33.66352 -53.15287,10.63059 -49.60936,30.11999 -76.18586,33.66352 -26.5764,3.54353 -21.26114,-24.8047 -46.06584,-26.57646 -24.8047,-1.77177 -41.43533,28.34823 -67.32713,19.48941 -25.8917,-8.85883 -6.51994,-41.85702 -40.75056,-33.66353 -33.27837,7.96555 -44.29409,31.89176 -67.32709,35.43529 -23.0329,3.54353 -18.0247,-12.6286 -54.9247,-17.71765 -33.63742,-4.63909 -21.21695,19.58697 -56.69645,19.48942 -30.119898,-7.08706 -1.36383,-40.29601 -38.978863,-31.89177 -38.2758847,8.5519 -19.274395,30.63894 -44.07909518,34.18247 L 1.2528269,430.62642 2999.7507,431.37359 Z"
     style="fill:#16222e;fill-opacity:1;stroke:none;stroke-width:1px;stroke-linecap:butt;stroke-linejoin:miter;stroke-opacity:1"
     id="path3727-4-9" />
  <ellipse
     style="fill:#000000;fill-opacity:1;stroke:none;stroke-width:1.47971904"
     id="path4673"
     cx="1493.3386"
     cy="135.24573"
     rx="9.2181082"
     ry="8.8369923" />
  <circle
     style="fill:#ffffff;fill-opacity:1;stroke:none;stroke-width:1.60308433"
     id="path4677"
     cx="1494.4822"
     cy="133.97542"
     r="4.7100849" />
  <ellipse
     style="fill:#efa183;fill-opacity:1;stroke:none;stroke-width:1.70633984"
     id="path4679"
     cx="1499.8187"
     cy="19.990822"
     rx="11.560484"
     ry="3.3029954"
     transform="rotate(5)" />
  <path
     style="fill:#000000;stroke:none;stroke-width:0.16224211;stroke-linecap:butt;stroke-linejoin:miter;stroke-miterlimit:4;stroke-dasharray:none;stroke-opacity:1"
     d="m 1426.4409,163.22191 c 0,0 2.0853,1.62006 5.2394,1.60526 4.7239,-0.0222 8.9672,-2.22637 9.8269,-5.22267 0,0 -3.0544,4.10615 -9.6549,3.81116 -3.0555,-0.1366 -5.2766,-1.85295 -5.2766,-1.85295 z"
     id="path4681"
     inkscape:connector-curvature="0"
     sodipodi:nodetypes="cscscc" />
  <path
     style="fill:none;stroke:#ffffff;stroke-width:1.62242103px;stroke-linecap:butt;stroke-linejoin:miter;stroke-opacity:1"
     d="m 1514.6811,57.592764 c 0.5083,-10.417127 2.2868,-27.186191 -18.5475,-24.8995"
     id="path4683"
     inkscape:connector-curvature="0" />
  <path
     style="fill:none;stroke:#ffffff;stroke-width:1.62242103px;stroke-linecap:butt;stroke-linejoin:miter;stroke-opacity:1"
     d="m 1521.2871,45.39709 c 5.0816,-13.974209 11.1795,-16.006822 23.6291,-14.482363"
     id="path4685"
     inkscape:connector-curvature="0" />
  <path
     style="fill:none;stroke:#ffffff;stroke-width:1.62242103px;stroke-linecap:butt;stroke-linejoin:miter;stroke-opacity:1"
     d="m 1520.0168,26.595425 c 0,-20.580203 -11.1793,-21.342433 -19.8179,-21.342433"
     id="path4687"
     inkscape:connector-curvature="0" />
</svg>
