<?xml version="1.0" encoding="UTF-8" standalone="no"?>
<!-- Created with Inkscape (http://www.inkscape.org/) -->

<svg
   xmlns:dc="http://purl.org/dc/elements/1.1/"
   xmlns:cc="http://creativecommons.org/ns#"
   xmlns:rdf="http://www.w3.org/1999/02/22-rdf-syntax-ns#"
   xmlns:svg="http://www.w3.org/2000/svg"
   xmlns="http://www.w3.org/2000/svg"
   xmlns:sodipodi="http://sodipodi.sourceforge.net/DTD/sodipodi-0.dtd"
   xmlns:inkscape="http://www.inkscape.org/namespaces/inkscape"
   version="1.1"
   id="svg3713"
   width="3000"
   height="400"
   viewBox="0 0 3000 400"
   sodipodi:docname="layer6.svg"
   inkscape:version="0.92.3 (2405546, 2018-03-11)">
  <metadata
     id="metadata3719">
    <rdf:RDF>
      <cc:Work
         rdf:about="">
        <dc:format>image/svg+xml</dc:format>
        <dc:type
           rdf:resource="http://purl.org/dc/dcmitype/StillImage" />
        <dc:title></dc:title>
      </cc:Work>
    </rdf:RDF>
  </metadata>
  <defs
     id="defs3717" />
  <sodipodi:namedview
     pagecolor="#ffffff"
     bordercolor="#666666"
     borderopacity="1"
     objecttolerance="10"
     gridtolerance="10"
     guidetolerance="10"
     inkscape:pageopacity="0"
     inkscape:pageshadow="2"
     inkscape:window-width="1920"
     inkscape:window-height="1017"
     id="namedview3715"
     showgrid="false"
     showguides="true"
     inkscape:guide-bbox="true"
     inkscape:zoom="1.5963898"
     inkscape:cx="1483.7198"
     inkscape:cy="229.44936"
     inkscape:window-x="-8"
     inkscape:window-y="100"
     inkscape:window-maximized="1"
     inkscape:current-layer="svg3713">
    <sodipodi:guide
       position="1500,481.92"
       orientation="1,0"
       id="guide3723"
       inkscape:locked="false"
       inkscape:label=""
       inkscape:color="rgb(0,0,255)" />
    <sodipodi:guide
       position="1448.2678,322.60291"
       orientation="0,1"
       inkscape:locked="false"
       id="guide3772" />
  </sodipodi:namedview>
  <a
     id="a3744">
    <g
       id="g3750">
      <g
         id="g3755" />
    </g>
  </a>
  <path
     style="fill:#2a3c48;fill-opacity:1;stroke:none;stroke-width:1px;stroke-linecap:butt;stroke-linejoin:miter;stroke-opacity:1"
     d="m 3000.3771,213.88738 c -28.2753,-1.17814 -34.4528,-33.82634 -56.3772,-34.45275 -32.0321,-0.9152 -55.7509,27.5622 -85.8187,25.68296 -30.0679,-1.87924 -38.7439,-43.34073 -70.7847,-23.80372 -25.683,15.66033 -35.0793,33.19992 -64.5207,33.19992 -29.4414,0 -40.7169,-29.44143 -65.7734,-28.81502 -25.0565,0.62642 -22.5509,13.7811 -63.2677,13.15469 -40.7169,-0.62642 -34.4396,-27.93928 -55.1244,-20.67166 -23.1773,8.14337 -19.3011,19.55888 -49.4866,23.80372 -40.0905,5.63772 -50.7395,-14.40752 -65.1471,-8.7698 -19.9107,7.79111 -35.0792,20.04524 -59.143,15.66035 -24.0638,-4.3849 -36.0719,-31.94709 -52.9851,-21.29807 -16.9131,10.64902 -36.5034,23.80439 -58.7394,23.80372 -18.166,-3.13207 -26.3094,-49.48667 -53.2452,-34.45275 -26.9358,15.03392 -48.2338,38.83764 -76.4224,36.33199 -28.1886,-2.50566 -21.9245,-24.43013 -43.8489,-25.05654 -32.0321,-0.9152 -48.2339,18.16599 -78.3017,16.28675 -30.0679,-1.87924 -30.0678,-45.72818 -61.3885,-25.05654 -31.3207,20.67164 -51.9924,26.30937 -81.4338,26.30937 -29.4414,0 -36.332,-21.29806 -61.3885,-20.67165 -25.0565,0.62642 -21.9245,16.91317 -62.6413,16.28676 -40.7169,-0.62642 -45.0886,-32.32417 -65.7734,-25.05655 -23.1773,8.14337 -16.7955,22.06453 -46.981,26.30937 -40.0905,5.63772 -46.3546,-16.91317 -60.7622,-11.27545 -19.9107,7.79111 -36.9584,16.91317 -61.0222,12.52828 -24.0638,-4.3849 -37.3247,-35.70557 -54.2379,-25.05655 -16.9131,10.64902 -20.3601,16.28743 -45.7281,21.92448 -35.3025,7.84463 -45.7281,-12.52827 -59.5092,-7.51696 -18.7925,6.26413 -27.5623,13.15468 -49.4868,10.64903 -20.5379,-2.34718 -23.1797,-21.36187 -40.0903,-20.67164 -13.8972,0.56723 -16.3121,15.83346 -35.0793,17.53957 -20.6716,1.87924 -20.2065,-28.18861 -37.5847,-28.18861 -30.9155,0 -25.074,23.51469 -48.2339,25.05654 -25.8242,1.71923 -24.602,-16.62657 -38.8376,-14.4075 -32.1482,5.0113 -25.683,16.28674 -51.9923,15.03391 -26.3094,-1.25283 -17.1505,-22.55088 -39.46413,-20.04523 -33.27902,3.73699 -26.30932,21.92448 -45.72814,20.67165 -19.41881,-1.25283 -21.92446,-15.03393 -38.21121,-15.03393 -16.28675,0 -25.68296,19.41883 -51.99232,18.79241 -18.166,-3.13207 -33.82636,-40.71688 -60.76216,-25.68296 -26.9358,15.03392 -40.09043,22.55089 -68.27903,20.04524 -28.1886,-2.50566 -22.55091,-16.91317 -44.47531,-17.53958 -32.0321,-0.9152 -48.2339,18.16599 -78.3017,16.28675 -30.0679,-1.87924 -39.9968,-35.82376 -72.03753,-16.28675 -25.68298,15.66033 -41.34337,17.53958 -70.78478,17.53958 -29.4414,0 -36.332,-21.29806 -61.3885,-20.67165 -25.0565,0.62642 -21.9245,16.91317 -62.6413,16.28676 -40.7169,-0.62642 -45.71501,-26.06004 -66.39981,-18.79242 -23.1773,8.14337 -16.16909,15.8004 -46.35459,20.04524 -40.0905,5.63772 -46.3546,-16.91317 -60.7622,-11.27545 -19.9107,7.79111 -36.9584,16.91317 -61.0222,12.52828 -24.0638,-4.3849 -37.3247,-30.69426 -54.2379,-20.04524 -16.9131,10.64902 -34.624234,18.79308 -56.8601711,18.79241 L 1.2528269,430.62642 2999.7507,429.37359 Z"
     id="path3774-9"
     inkscape:connector-curvature="0"
     sodipodi:nodetypes="cscssssssssscscscssssssssssssssssssssscscscssssssssscccc" />
</svg>
