<?xml version="1.0" encoding="UTF-8" standalone="no"?>
<!-- Created with Inkscape (http://www.inkscape.org/) -->

<svg
   xmlns:dc="http://purl.org/dc/elements/1.1/"
   xmlns:cc="http://creativecommons.org/ns#"
   xmlns:rdf="http://www.w3.org/1999/02/22-rdf-syntax-ns#"
   xmlns:svg="http://www.w3.org/2000/svg"
   xmlns="http://www.w3.org/2000/svg"
   xmlns:sodipodi="http://sodipodi.sourceforge.net/DTD/sodipodi-0.dtd"
   xmlns:inkscape="http://www.inkscape.org/namespaces/inkscape"
   version="1.1"
   id="svg3713"
   width="3000"
   height="700"
   viewBox="0 0 3000 700"
   sodipodi:docname="layer3.svg"
   inkscape:version="0.92.3 (2405546, 2018-03-11)">
  <metadata
     id="metadata3719">
    <rdf:RDF>
      <cc:Work
         rdf:about="">
        <dc:format>image/svg+xml</dc:format>
        <dc:type
           rdf:resource="http://purl.org/dc/dcmitype/StillImage" />
        <dc:title></dc:title>
      </cc:Work>
    </rdf:RDF>
  </metadata>
  <defs
     id="defs3717" />
  <sodipodi:namedview
     pagecolor="#ffffff"
     bordercolor="#666666"
     borderopacity="1"
     objecttolerance="10"
     gridtolerance="10"
     guidetolerance="10"
     inkscape:pageopacity="0"
     inkscape:pageshadow="2"
     inkscape:window-width="1920"
     inkscape:window-height="1017"
     id="namedview3715"
     showgrid="false"
     showguides="true"
     inkscape:guide-bbox="true"
     inkscape:zoom="1.1288181"
     inkscape:cx="1468.7897"
     inkscape:cy="369.52898"
     inkscape:window-x="-8"
     inkscape:window-y="100"
     inkscape:window-maximized="1"
     inkscape:current-layer="svg3713">
    <sodipodi:guide
       position="1500,481.92"
       orientation="1,0"
       id="guide3723"
       inkscape:locked="false"
       inkscape:label=""
       inkscape:color="rgb(0,0,255)" />
    <sodipodi:guide
       position="1448.2678,322.60291"
       orientation="0,1"
       inkscape:locked="false"
       id="guide3772" />
  </sodipodi:namedview>
  <a
     id="a3744"
     transform="translate(0,300)">
    <g
       id="g3750">
      <g
         id="g3755" />
    </g>
  </a>
  <path
     sodipodi:nodetypes="cssssssscssssscssssssssssssssssssssssssssssssssssscccc"
     inkscape:connector-curvature="0"
     d="m -0.77356,306.918 c 34.234429,-6.35317 20.252419,-30.03753 62.475188,-44.72401 29.672925,-10.32123 36.169254,41.80689 71.604552,38.26337 35.4353,-3.54352 27.61435,-31.99925 61.27785,-31.99925 33.6636,0 43.57867,29.4936 82.55757,27.72183 38.9788,-1.77176 21.68401,-22.81163 54.58386,-33.03712 34.43472,-10.70253 49.62772,23.85587 76.20422,27.3994 26.5764,3.54353 36.15073,-20.2233 60.95543,-21.99506 24.8047,-1.77177 50.85003,41.39544 76.74183,32.53662 25.8917,-8.85883 20.87756,-28.95275 50.14669,-35.34627 20.44094,-4.46509 47.12218,26.48744 70.15518,30.03097 23.0329,3.54353 19.27753,-13.88143 56.17753,-18.97048 33.6375,-4.63909 24.45239,17.49947 59.72113,13.63675 30.75852,-3.36875 45.74679,-25.75331 84.1881,-28.54476 28.8797,-2.09712 19.7933,30.22749 44.5981,33.77102 42.5224,0 20.83059,-14.86333 60.86641,-23.24789 34.02472,-7.12568 18.53373,20.91038 61.47442,24.71567 33.1261,2.93555 45.6308,-25.22397 72.0159,-28.86718 30.399,-4.19743 20.6839,19.52113 55.3176,27.81088 32.3032,7.73191 34.8341,-9.30878 60.848,-17.50272 15.3624,-4.83886 18.3644,4.96205 43.416,4.77792 25.9892,-0.19102 35.1749,-9.39155 55.2102,-10.18224 23.8799,-0.94241 18.7617,17.04195 61.2073,7.05017 39.19,-9.22541 31.3708,-24.62514 53.2235,-22.42496 27.9608,2.81517 54.4532,37.23632 77.8871,35.68713 47.2982,-3.12685 35.4932,-25.29226 53.0639,-23.01451 28.993,3.75848 22.8479,16.12626 46.0474,13.92229 41.8254,-3.97344 32.5182,-19.5969 62.4417,-27.74027 22.2246,-6.0482 18.2,26.10487 74.1101,23.6778 51.9274,-2.25418 49.621,-22.94316 76.0448,-20.09738 29.082,3.13206 10.5936,21.35021 35.3983,24.89374 24.8047,3.54353 33.7815,-17.0645 64.7692,-19.16699 33.9076,-2.3006 23.3876,24.49367 48.338,22.19158 24.5127,-2.2617 31.5521,-20.36043 49.3058,-21.76168 23.5776,-1.86092 13.4238,20.06157 52.5263,21.76168 42.4823,1.84706 38.6955,-10.41268 77.3681,-14.4781 29.8186,-3.13465 30.1015,22.92546 61.9749,16.46482 42.2497,-8.56389 27.9194,-16.73304 63.676,-25.21617 30.0726,-7.13459 39.7127,32.82216 75.148,29.27864 35.4353,-3.54353 48.2861,-22.29907 81.9496,-22.29907 33.6636,0 0.2034,15.30143 39.12,18.12912 79.0693,5.7452 68.3428,-26.66016 99.9375,-25.52015 29.5072,1.06469 15.1566,21.3502 41.7331,24.89373 26.5764,3.54353 37.5478,-14.15567 62.3525,-15.92743 24.8047,-1.77177 35.0775,25.25552 62.3158,22.62148 27.8822,-2.69632 20.2694,-27.7585 55.1582,-32.41071 29.5199,-3.9363 17.9847,25.00122 41.0177,28.54475 23.0329,3.54353 14.8926,-10.74936 51.7926,-15.83841 33.6374,-4.63909 15.1636,15.20876 50.4323,11.34604 30.7585,-3.36875 13.2898,-12.44265 45.8694,-19.98991 12.9632,-3.003 8.0887,19.96332 15.9802,26.63892 L 2999.7507,702.34889 1.2528269,701.60172 Z"
     style="fill:#1e2f39;fill-opacity:1;stroke:none;stroke-width:1px;stroke-linecap:butt;stroke-linejoin:miter;stroke-opacity:1"
     id="path3727-4-9-2" />
</svg>
