<?xml version="1.0" encoding="UTF-8" standalone="no"?>
<!-- Created with Inkscape (http://www.inkscape.org/) -->

<svg
   xmlns:dc="http://purl.org/dc/elements/1.1/"
   xmlns:cc="http://creativecommons.org/ns#"
   xmlns:rdf="http://www.w3.org/1999/02/22-rdf-syntax-ns#"
   xmlns:svg="http://www.w3.org/2000/svg"
   xmlns="http://www.w3.org/2000/svg"
   xmlns:sodipodi="http://sodipodi.sourceforge.net/DTD/sodipodi-0.dtd"
   xmlns:inkscape="http://www.inkscape.org/namespaces/inkscape"
   version="1.1"
   id="svg3713"
   width="3000"
   height="400"
   viewBox="0 0 3000 400"
   sodipodi:docname="layer2.svg"
   inkscape:version="0.92.3 (2405546, 2018-03-11)">
  <metadata
     id="metadata3719">
    <rdf:RDF>
      <cc:Work
         rdf:about="">
        <dc:format>image/svg+xml</dc:format>
        <dc:type
           rdf:resource="http://purl.org/dc/dcmitype/StillImage" />
        <dc:title></dc:title>
      </cc:Work>
    </rdf:RDF>
  </metadata>
  <defs
     id="defs3717" />
  <sodipodi:namedview
     pagecolor="#ffffff"
     bordercolor="#666666"
     borderopacity="1"
     objecttolerance="10"
     gridtolerance="10"
     guidetolerance="10"
     inkscape:pageopacity="0"
     inkscape:pageshadow="2"
     inkscape:window-width="1920"
     inkscape:window-height="1017"
     id="namedview3715"
     showgrid="false"
     showguides="true"
     inkscape:guide-bbox="true"
     inkscape:zoom="1.5963898"
     inkscape:cx="1483.7198"
     inkscape:cy="229.44936"
     inkscape:window-x="-8"
     inkscape:window-y="100"
     inkscape:window-maximized="1"
     inkscape:current-layer="svg3713">
    <sodipodi:guide
       position="1500,481.92"
       orientation="1,0"
       id="guide3723"
       inkscape:locked="false"
       inkscape:label=""
       inkscape:color="rgb(0,0,255)" />
    <sodipodi:guide
       position="1448.2678,322.60291"
       orientation="0,1"
       inkscape:locked="false"
       id="guide3772" />
  </sodipodi:namedview>
  <path
     sodipodi:nodetypes="csssssssssssssssssssssssscssscssssscssssssssscsssscccc"
     inkscape:connector-curvature="0"
     d="m 3000.2079,176.61588 c -25.2606,9.9781 -43.9764,8.39623 -86.6065,4.19005 -36.8368,-3.63458 -36.4598,-37.31841 -56.6761,-34.50656 -22.3914,3.11438 -31.7843,34.91635 -81.6271,34.5049 -35.6108,-0.29397 -25.1087,-20.0974 -58.7722,-20.0974 -33.6636,0 -37.9373,12.50026 -76.9198,10.80867 -55.2655,-2.39817 -46.7663,-31.51837 -67.7386,-28.02581 -22.4585,3.74005 -23.3184,28.24076 -69.9401,31.78429 -26.7345,2.03198 -36.7771,-15.83841 -61.5818,-17.61017 -24.8047,-1.77177 -37.8473,17.61864 -64.84,13.11781 -27.3929,-4.56757 -28.7396,-28.17631 -40.7505,-26.57647 -18.4294,2.45476 -18.3071,28.36666 -62.6382,31.28378 -23.2536,1.53016 -8.6285,-22.0248 -37.3851,-17.71765 -33.5813,5.02979 -36.3543,15.62023 -71.623,11.75751 -30.7585,-3.36875 -34.6898,-26.91476 -50.9882,-23.53345 -14.9039,3.092 -24.0269,18.97394 -55.8735,22.49557 -56.1933,6.21392 -51.5685,-22.07399 -69.0099,-18.863 -22.7546,4.18917 -22.1338,26.26642 -65.2328,25.34209 -67.5788,-1.44934 -61.0997,-26.469 -87.6762,-28.24076 -26.5765,-1.77177 -39.752,19.9474 -75.363,19.66749 -52.3484,-0.41146 -48.4885,-19.6127 -58.9687,-15.62347 -20.08,7.64335 -33.9238,13.5091 -53.4386,11.66847 -38.3437,-3.61658 -43.1879,-29.37543 -54.5838,-25.84257 -27.4077,8.49668 -32.0531,26.88127 -54.3167,29.60105 -54.8601,6.70185 -39.1456,-22.7073 -58.8613,-13.02876 -22.3231,10.95855 -36.9613,16.35734 -57.8418,10.00418 -42.8049,-16.37579 -40.7014,-30.99142 -56.8224,-23.64092 -23.3553,10.64903 -27.2932,20.55196 -52.938,23.31849 -50.6615,5.46529 -41.0046,-20.51965 -55.5511,-14.58559 -14.9392,6.09424 -12.9478,26.90742 -60.9555,20.54573 -30.1199,-7.08706 -25.9638,-29.08612 -44.0976,-26.98793 -16.6314,1.92435 -18.1106,22.60304 -56.6964,26.14657 -24.9515,2.29143 -24.6482,-21.55771 -37.2071,-17.28775 -32.3053,10.98361 -27.5009,23.21661 -52.0965,18.4331 -24.51263,-4.76735 -35.13695,-29.81457 -52.4377,-25.52016 -16.43531,4.07959 -12.29483,26.36152 -51.27353,29.90505 -42.5224,0 -21.36868,-19.27445 -58.57575,-15.73093 -45.89225,4.37069 -40.19843,19.43981 -83.27296,17.71765 -51.91845,-2.07575 -47.96857,-31.47563 -65.55522,-28.34823 -25.35298,4.50847 -24.05235,33.44857 -72.64233,33.66353 -35.61169,0.15754 -30.12001,-24.80472 -63.78351,-24.80472 -33.6636,0 -38.97882,23.03295 -77.95772,21.26118 -38.9788,-1.77176 -25.05137,-36.89286 -46.06589,-33.66352 -24.33785,3.74004 -30.81696,26.98792 -76.18586,29.90504 -26.75634,1.72037 -27.52527,-17.91415 -52.32997,-19.68591 -24.8047,-1.77177 -35.1712,25.21616 -61.063,16.35734 -32.15583,-5.10035 -25.35113,-25.82448 -47.01469,-22.38809 -19.44888,3.08509 -8.58853,23.12197 -61.06296,24.15985 -23.29933,0.46083 -26.16807,-25.78328 -40.517192,-23.35537 -33.479936,5.66489 -24.559779,28.36345 -59.828524,24.50073 -30.758507,-3.36875 -21.40906,-38.41677 -35.84679336,-35.02384 0,0 1.72270252,204.0997 2.07662626,292.55945 L 2999.7507,431.37359 Z"
     style="fill:#293b47;fill-opacity:1;stroke:none;stroke-width:1px;stroke-linecap:butt;stroke-linejoin:miter;stroke-opacity:1"
     id="path3727-4-9-1" />
  <a
     id="a3744">
    <g
       id="g3750">
      <g
         id="g3755" />
    </g>
  </a>
</svg>
