<?xml version="1.0" encoding="UTF-8" standalone="no"?>
<!-- Created with Inkscape (http://www.inkscape.org/) -->

<svg
   xmlns:dc="http://purl.org/dc/elements/1.1/"
   xmlns:cc="http://creativecommons.org/ns#"
   xmlns:rdf="http://www.w3.org/1999/02/22-rdf-syntax-ns#"
   xmlns:svg="http://www.w3.org/2000/svg"
   xmlns="http://www.w3.org/2000/svg"
   xmlns:sodipodi="http://sodipodi.sourceforge.net/DTD/sodipodi-0.dtd"
   xmlns:inkscape="http://www.inkscape.org/namespaces/inkscape"
   version="1.1"
   id="svg3713"
   width="3000"
   height="700"
   viewBox="0 0 3000 700"
   sodipodi:docname="layer1.svg"
   inkscape:version="0.92.3 (2405546, 2018-03-11)">
  <metadata
     id="metadata3719">
    <rdf:RDF>
      <cc:Work
         rdf:about="">
        <dc:format>image/svg+xml</dc:format>
        <dc:type
           rdf:resource="http://purl.org/dc/dcmitype/StillImage" />
        <dc:title></dc:title>
      </cc:Work>
    </rdf:RDF>
  </metadata>
  <defs
     id="defs3717" />
  <sodipodi:namedview
     pagecolor="#ffffff"
     bordercolor="#666666"
     borderopacity="1"
     objecttolerance="10"
     gridtolerance="10"
     guidetolerance="10"
     inkscape:pageopacity="0"
     inkscape:pageshadow="2"
     inkscape:window-width="1920"
     inkscape:window-height="1017"
     id="namedview3715"
     showgrid="false"
     showguides="true"
     inkscape:guide-bbox="true"
     inkscape:zoom="1.1288181"
     inkscape:cx="1468.7897"
     inkscape:cy="369.52898"
     inkscape:window-x="-8"
     inkscape:window-y="100"
     inkscape:window-maximized="1"
     inkscape:current-layer="svg3713">
    <sodipodi:guide
       position="1500,481.92"
       orientation="1,0"
       id="guide3723"
       inkscape:locked="false"
       inkscape:label=""
       inkscape:color="rgb(0,0,255)" />
    <sodipodi:guide
       position="1448.2678,322.60291"
       orientation="0,1"
       inkscape:locked="false"
       id="guide3772" />
  </sodipodi:namedview>
  <path
     sodipodi:nodetypes="csssssssssssssssssssssssscssscssssscssssssssscsssscccc"
     inkscape:connector-curvature="0"
     d="m 3000.7837,257.80761 c -25.2606,9.9781 -39.5915,20.92449 -61.55,12.95983 -34.7973,-12.62152 -29.5692,-36.06558 -49.7855,-33.25373 -22.3914,3.11438 -9.2334,28.0258 -59.0762,27.61435 -35.6108,-0.29397 -32.6257,-20.0974 -63.7835,-24.48229 -33.3352,-4.6913 -36.0581,18.13798 -75.0406,16.44639 -55.2655,-2.39817 -46.7663,-31.51837 -67.7386,-28.02581 -22.4585,3.74005 -23.3184,28.24076 -69.9401,31.78429 -26.7345,2.03198 -36.7771,-15.83841 -61.5818,-17.61017 -24.8047,-1.77177 -37.8473,17.61864 -64.84,13.11781 -27.3929,-4.56757 -28.7396,-28.17631 -40.7505,-26.57647 -18.4294,2.45476 -18.3071,28.36666 -62.6382,31.28378 -23.2536,1.53016 -8.6285,-22.0248 -37.3851,-17.71765 -33.5813,5.02979 -36.3543,15.62023 -71.623,11.75751 -30.7585,-3.36875 -34.6898,-26.91476 -50.9882,-23.53345 -14.9039,3.092 -24.0269,18.97394 -55.8735,22.49557 -56.1933,6.21392 -51.5685,-22.07399 -69.0099,-18.863 -22.7546,4.18917 -22.1338,26.26642 -65.2328,25.34209 -67.5788,-1.44934 -61.0997,-26.469 -87.6762,-28.24076 -26.5765,-1.77177 -39.752,19.9474 -75.363,19.66749 -52.3484,-0.41146 -48.4885,-19.6127 -58.9687,-15.62347 -20.08,7.64335 -32.671,11.62986 -52.1858,9.78923 -38.3437,-3.61658 -36.9237,-23.73771 -48.3196,-20.20485 -27.4077,8.49668 -39.5701,23.12279 -61.8337,25.84257 -54.8601,6.70185 -39.1456,-22.7073 -58.8613,-13.02876 -22.3231,10.95855 -36.9613,16.35734 -57.8418,10.00418 -42.8049,-16.37579 -36.3165,-30.36501 -52.4375,-23.01451 -23.3553,10.64903 -25.4139,24.31044 -51.0587,27.07697 -50.6615,5.46529 -44.1367,-18.01399 -58.6832,-12.07993 -14.9392,6.09424 -16.0799,20.01687 -64.0876,13.65518 -30.1199,-7.08706 -25.9638,-29.08612 -44.0976,-26.98793 -16.6314,1.92435 -18.1106,22.60304 -56.6964,26.14657 -24.9515,2.29143 -24.6482,-21.55771 -37.2071,-17.28775 -32.3053,10.98361 -27.5009,23.21661 -52.0965,18.4331 -24.5127,-4.76735 -35.137,-29.81457 -52.4377,-25.52016 -16.43533,4.07959 -12.29485,26.36152 -51.27355,29.90505 -42.5224,0 -21.36868,-19.27445 -58.57575,-15.73093 -45.89225,4.37069 -40.19843,19.43981 -83.27296,17.71765 -51.91845,-2.07575 -47.96857,-31.47563 -65.55522,-28.34823 -25.35298,4.50847 -24.05235,33.44857 -72.64233,33.66353 -35.61169,0.15754 -30.12001,-24.80472 -63.78351,-24.80472 -33.6636,0 -38.97882,23.03295 -77.95772,21.26118 -38.9788,-1.77176 -25.05137,-36.89286 -46.06589,-33.66352 -24.33785,3.74004 -30.81696,26.98792 -76.18586,29.90504 -26.75634,1.72037 -27.52527,-17.91415 -52.32997,-19.68591 -24.8047,-1.77177 -35.1712,25.21616 -61.063,16.35734 -32.15583,-5.10035 -25.35113,-25.82448 -47.01469,-22.38809 -19.44888,3.08509 -8.58853,23.12197 -61.06296,24.15985 -23.29933,0.46083 -26.16807,-25.78328 -40.5172,-23.35537 -33.47993,5.66489 -24.73096,19.30777 -59.828522,24.50073 C 12.357219,269.70619 13.563294,222.1299 -0.8744358,225.52283 L 1.2528269,701.60172 2999.7507,702.34889 Z"
     style="fill:#101a23;fill-opacity:1;stroke:none;stroke-width:1px;stroke-linecap:butt;stroke-linejoin:miter;stroke-opacity:1"
     id="path3727-4-9-1-1" />
  <a
     id="a3744"
     transform="translate(0,300)">
    <g
       id="g3750">
      <g
         id="g3755" />
    </g>
  </a>
</svg>
