<?xml version="1.0" encoding="UTF-8" standalone="no"?>
<!-- Created with Inkscape (http://www.inkscape.org/) -->

<svg
   xmlns:dc="http://purl.org/dc/elements/1.1/"
   xmlns:cc="http://creativecommons.org/ns#"
   xmlns:rdf="http://www.w3.org/1999/02/22-rdf-syntax-ns#"
   xmlns:svg="http://www.w3.org/2000/svg"
   xmlns="http://www.w3.org/2000/svg"
   xmlns:sodipodi="http://sodipodi.sourceforge.net/DTD/sodipodi-0.dtd"
   xmlns:inkscape="http://www.inkscape.org/namespaces/inkscape"
   version="1.1"
   id="svg3713"
   width="3000"
   height="700"
   viewBox="0 0 3000 700"
   sodipodi:docname="layer5.svg"
   inkscape:version="0.92.3 (2405546, 2018-03-11)">
  <metadata
     id="metadata3719">
    <rdf:RDF>
      <cc:Work
         rdf:about="">
        <dc:format>image/svg+xml</dc:format>
        <dc:type
           rdf:resource="http://purl.org/dc/dcmitype/StillImage" />
        <dc:title></dc:title>
      </cc:Work>
    </rdf:RDF>
  </metadata>
  <defs
     id="defs3717" />
  <sodipodi:namedview
     pagecolor="#ffffff"
     bordercolor="#666666"
     borderopacity="1"
     objecttolerance="10"
     gridtolerance="10"
     guidetolerance="10"
     inkscape:pageopacity="0"
     inkscape:pageshadow="2"
     inkscape:window-width="1920"
     inkscape:window-height="1017"
     id="namedview3715"
     showgrid="false"
     showguides="true"
     inkscape:guide-bbox="true"
     inkscape:zoom="1.1288181"
     inkscape:cx="1468.7897"
     inkscape:cy="369.52898"
     inkscape:window-x="-8"
     inkscape:window-y="100"
     inkscape:window-maximized="1"
     inkscape:current-layer="svg3713">
    <sodipodi:guide
       position="1500,481.92"
       orientation="1,0"
       id="guide3723"
       inkscape:locked="false"
       inkscape:label=""
       inkscape:color="rgb(0,0,255)" />
  </sodipodi:namedview>
  <a
     id="a3744"
     transform="translate(0,300)">
    <g
       id="g3750">
      <g
         id="g3755" />
    </g>
  </a>
  <path
     style="fill:#255989;fill-opacity:1;stroke:none;stroke-width:2.69926405px;stroke-linecap:butt;stroke-linejoin:miter;stroke-opacity:1"
     d="m 1334.8805,115.93271 c 34.939,-19.23177 56.7931,-20.02191 116.6689,-10.56783 48.1895,7.60884 78.6251,16.48582 95.5335,58.75718 16.9088,42.27141 -12.783,77.25008 13.9495,93.84249 22.3141,13.85009 66.0688,-3.69459 87.0791,-64.67524 -9.5303,-4.57849 -15.8921,5.97651 -30.0126,-2.53628 -18.9031,-11.39618 -11.836,-28.74452 -11.836,-28.74452 0,0 14.7948,6.76342 24.9398,5.91799 10.1452,-0.84541 20.8998,6.66292 23.2495,16.90853 4.8861,-7.08566 5.0151,-16.98713 26.6311,-12.25867 13.5268,2.95898 25.7855,-0.42271 25.7855,-0.42271 -3.5266,41.13728 -33.4196,23.23363 -51.571,24.09464 0,0 -1.7494,92.10272 -32.9718,129.35045 -41.0617,48.98594 -126.8245,28.64508 -184.3033,26.63099 -68.4688,-2.39918 -146.9247,-28.80574 -145.4135,-82.00647 1.65,-58.08666 0.1809,-131.12207 42.2713,-154.29055 z"
     id="path4671"
     inkscape:connector-curvature="0"
     sodipodi:nodetypes="sscscscccsccssss" />
  <ellipse
     style="fill:#000000;fill-opacity:1;stroke:none;stroke-width:2.46184707"
     id="path4673"
     cx="1403.7827"
     cy="222.72211"
     rx="15.336407"
     ry="14.702333" />
  <circle
     style="fill:#ffffff;fill-opacity:1;stroke:none;stroke-width:2.66709304"
     id="path4677"
     cx="1405.6853"
     cy="220.60864"
     r="7.8362908" />
  <ellipse
     style="fill:#efa183;fill-opacity:1;stroke:none;stroke-width:2.83888197"
     id="path4679"
     cx="1418.4755"
     cy="125.16865"
     rx="19.233477"
     ry="5.4952793"
     transform="rotate(5)" />
  <path
     style="fill:#000000;stroke:none;stroke-width:0.26992643;stroke-linecap:butt;stroke-linejoin:miter;stroke-miterlimit:4;stroke-dasharray:none;stroke-opacity:1"
     d="m 1292.4832,269.26682 c 0,0 3.4694,2.69533 8.717,2.67071 7.8593,-0.037 14.9189,-3.70407 16.3492,-8.68908 0,0 -5.0816,6.8315 -16.0631,6.34071 -5.0835,-0.22726 -8.7788,-3.08279 -8.7788,-3.08279 z"
     id="path4681"
     inkscape:connector-curvature="0"
     sodipodi:nodetypes="cscscc" />
  <path
     style="fill:none;stroke:#ffffff;stroke-width:2.69926405px;stroke-linecap:butt;stroke-linejoin:miter;stroke-opacity:1"
     d="m 1439.2907,93.52886 c 0.8457,-17.33123 3.8047,-45.23037 -30.8579,-41.42595"
     id="path4683"
     inkscape:connector-curvature="0" />
  <path
     style="fill:none;stroke:#ffffff;stroke-width:2.69926405px;stroke-linecap:butt;stroke-linejoin:miter;stroke-opacity:1"
     d="m 1450.2814,73.23861 c 8.4543,-23.24926 18.5995,-26.63097 39.3123,-24.09468"
     id="path4685"
     inkscape:connector-curvature="0" />
  <path
     style="fill:none;stroke:#ffffff;stroke-width:2.69926405px;stroke-linecap:butt;stroke-linejoin:miter;stroke-opacity:1"
     d="m 1448.1678,41.95779 c 0,-34.23983 -18.5992,-35.50797 -32.9715,-35.50797"
     id="path4687"
     inkscape:connector-curvature="0" />
</svg>
