<?xml version="1.0" encoding="UTF-8" standalone="no"?>
<!-- Created with Inkscape (http://www.inkscape.org/) -->

<svg
   xmlns:dc="http://purl.org/dc/elements/1.1/"
   xmlns:cc="http://creativecommons.org/ns#"
   xmlns:rdf="http://www.w3.org/1999/02/22-rdf-syntax-ns#"
   xmlns:svg="http://www.w3.org/2000/svg"
   xmlns="http://www.w3.org/2000/svg"
   xmlns:sodipodi="http://sodipodi.sourceforge.net/DTD/sodipodi-0.dtd"
   xmlns:inkscape="http://www.inkscape.org/namespaces/inkscape"
   version="1.1"
   id="svg3713"
   width="3000"
   height="400"
   viewBox="0 0 3000 400"
   sodipodi:docname="layer3.svg"
   inkscape:version="0.92.3 (2405546, 2018-03-11)">
  <metadata
     id="metadata3719">
    <rdf:RDF>
      <cc:Work
         rdf:about="">
        <dc:format>image/svg+xml</dc:format>
        <dc:type
           rdf:resource="http://purl.org/dc/dcmitype/StillImage" />
        <dc:title></dc:title>
      </cc:Work>
    </rdf:RDF>
  </metadata>
  <defs
     id="defs3717" />
  <sodipodi:namedview
     pagecolor="#ffffff"
     bordercolor="#666666"
     borderopacity="1"
     objecttolerance="10"
     gridtolerance="10"
     guidetolerance="10"
     inkscape:pageopacity="0"
     inkscape:pageshadow="2"
     inkscape:window-width="1920"
     inkscape:window-height="1017"
     id="namedview3715"
     showgrid="false"
     showguides="true"
     inkscape:guide-bbox="true"
     inkscape:zoom="1.5963898"
     inkscape:cx="665.43795"
     inkscape:cy="179.33629"
     inkscape:window-x="-8"
     inkscape:window-y="100"
     inkscape:window-maximized="1"
     inkscape:current-layer="svg3713">
    <sodipodi:guide
       position="1500,481.92"
       orientation="1,0"
       id="guide3723"
       inkscape:locked="false"
       inkscape:label=""
       inkscape:color="rgb(0,0,255)" />
    <sodipodi:guide
       position="1448.2678,322.60291"
       orientation="0,1"
       inkscape:locked="false"
       id="guide3772" />
  </sodipodi:namedview>
  <a
     id="a3744">
    <g
       id="g3750">
      <g
         id="g3755" />
    </g>
  </a>
  <path
     sodipodi:nodetypes="cssssssscssscscssssssssscssscsscsscssssssssscssscscccc"
     inkscape:connector-curvature="0"
     d="m 2999.8581,248.22884 c -65.5551,-8.85882 -55.8284,-46.07585 -95.6751,-37.20705 -50.58,11.25774 -33.6636,33.66352 -69.0989,30.12 -35.4353,-3.54352 -30.12,-30.12001 -63.7835,-30.12001 -33.6636,0 -35.4353,30.12001 -74.4142,28.34824 -38.9788,-1.77176 -50.0223,-37.8332 -70.8706,-33.66353 -53.1528,10.63059 -38.9787,30.12 -65.5552,33.66353 -26.5764,3.54353 -44.2941,-17.71765 -69.0988,-19.48941 -24.8047,-1.77177 -30.8048,30.12 -56.6966,21.26118 -25.8917,-8.85883 -6.5199,-34.76996 -40.7505,-26.57647 -33.2784,7.96555 -38.9788,17.71764 -62.0118,21.26117 -23.0329,3.54353 -18.0247,-12.6286 -54.9247,-17.71765 -33.6375,-4.63909 -22.9888,23.1305 -58.4683,23.03295 -30.1199,-7.08706 0.408,-43.83954 -37.2071,-35.4353 -38.2759,8.5519 -24.8046,28.34824 -49.6094,31.89177 -42.5224,0 -19.4894,-15.94588 -60.24,-19.48941 -45.9266,-3.99361 -28.3482,23.03294 -70.8706,15.94588 -42.5223,-7.08706 -46.0658,-28.34824 -72.6423,-30.12 -26.5765,-1.77177 -33.6635,40.75059 -69.0988,37.20707 -35.4353,-3.54353 -37.2071,-21.26119 -70.8706,-21.26119 -33.6636,0 -30.0862,13.46246 -69.0989,14.17412 -40.2316,0.73389 -55.7162,-32.5075 -67.1121,-28.97464 -27.4077,8.49668 -34.5588,24.37562 -56.8224,27.0954 -54.8601,6.70185 -42.2776,-22.7073 -61.9933,-13.02876 -22.3231,10.95855 -34.4557,18.86299 -55.3362,12.50983 -42.8049,-16.37579 -33.1844,-40.38761 -49.3054,-33.03712 -23.3553,10.64903 -34.8065,31.85805 -57.9493,34.59393 -40.5725,4.79635 -31.2653,-12.70635 -54.2983,-12.70635 -23.0329,0 -12.9477,18.76405 -68.4724,11.77595 -30.1199,-7.08706 -10.6306,-30.12 -37.2071,-30.12 -26.5764,0 -31.8917,30.12 -56.6964,33.66353 -24.8047,3.54353 -7.4047,-29.16746 -37.2071,-24.80471 -34.0657,-1.94817 -35.6443,31.35998 -60.2399,26.57647 -24.5126,-4.76735 -4.0571,-47.86492 -44.2943,-33.66353 -30.11986,10.63059 -14.17406,30.12 -53.15276,33.66353 -42.5224,0 -19.48944,-23.03293 -56.69651,-19.48941 -45.89225,4.37069 -40.75056,24.80471 -83.27296,17.71765 -42.52225,-7.08706 -40.18693,-36.46608 -65.55522,-28.34823 -44.29415,14.17411 -37.20703,37.20705 -72.64233,33.66353 -35.4353,-3.54353 -30.12001,-24.80472 -63.78351,-24.80472 -33.6636,0 -38.97882,23.03295 -77.95772,21.26118 -38.9788,-1.77176 -25.21757,-37.83319 -46.06589,-33.66352 -53.15287,10.63059 -49.60936,30.11999 -76.18586,33.66352 -26.5764,3.54353 -21.26114,-24.8047 -46.06584,-26.57646 -24.8047,-1.77177 -41.43533,28.34823 -67.32713,19.48941 -25.8917,-8.85883 -6.51994,-41.85702 -40.75056,-33.66353 -33.27837,7.96555 -44.29409,31.89176 -67.32709,35.43529 -23.0329,3.54353 -18.0247,-12.6286 -54.9247,-17.71765 -33.63742,-4.63909 -21.21695,19.58697 -56.69645,19.48942 -30.119898,-7.08706 -1.36383,-40.29601 -38.978863,-31.89177 -38.2758847,8.5519 -19.274395,30.63894 -44.07909518,34.18247 L 1.2528269,430.62642 2999.7507,431.37359 Z"
     style="fill:#16222e;fill-opacity:1;stroke:none;stroke-width:1px;stroke-linecap:butt;stroke-linejoin:miter;stroke-opacity:1"
     id="path3727-4-9" />
  <path
     sodipodi:nodetypes="cssssssscssssscssssssssssssssssssssssssssssssssssscccc"
     inkscape:connector-curvature="0"
     d="m -0.77356,206.918 c 34.234429,-6.35317 20.252419,-30.03753 62.475188,-44.72401 29.672925,-10.32123 28.652293,31.78428 64.087592,28.24076 35.4353,-3.54352 35.13131,-21.97664 68.79481,-21.97664 33.6636,0 34.18247,24.48229 73.16137,22.71052 38.9788,-1.77176 31.08021,-17.80032 63.98006,-28.02581 34.43472,-10.70253 45.24283,21.97663 71.81933,25.52016 26.5764,3.54353 40.53562,-18.34406 65.34032,-20.11582 24.8047,-1.77177 47.71796,33.87848 73.60976,25.01966 25.8917,-8.85883 24.00963,-21.43579 53.27876,-27.82931 20.44094,-4.46509 47.12218,26.48744 70.15518,30.03097 23.0329,3.54353 19.27753,-13.88143 56.17753,-18.97048 33.6375,-4.63909 24.45239,17.49947 59.72113,13.63675 30.75852,-3.36875 45.74679,-25.75331 84.1881,-28.54476 28.8797,-2.09712 19.7933,30.22749 44.5981,33.77102 42.5224,0 20.83059,-14.86333 60.86641,-23.24789 34.02472,-7.12568 18.53373,20.91038 61.47442,24.71567 33.1261,2.93555 45.6308,-25.22397 72.0159,-28.86718 30.399,-4.19743 20.6839,19.52113 55.3176,27.81088 32.3032,7.73191 34.8341,-9.30878 60.848,-17.50272 15.3624,-4.83886 18.3644,4.96205 43.416,4.77792 25.9892,-0.19102 35.1749,-9.39155 55.2102,-10.18224 23.8799,-0.94241 18.7617,17.04195 61.2073,7.05017 39.19,-9.22541 31.3708,-24.62514 53.2235,-22.42496 27.9608,2.81517 54.4532,37.23632 77.8871,35.68713 47.2982,-3.12685 35.4932,-25.29226 53.0639,-23.01451 28.993,3.75848 22.8479,16.12626 46.0474,13.92229 41.8254,-3.97344 32.5182,-19.5969 62.4417,-27.74027 22.2246,-6.0482 18.2,26.10487 74.1101,23.6778 51.9274,-2.25418 49.621,-22.94316 76.0448,-20.09738 29.082,3.13206 10.5936,21.35021 35.3983,24.89374 24.8047,3.54353 33.7815,-17.0645 64.7692,-19.16699 33.9076,-2.3006 23.3876,24.49367 48.338,22.19158 24.5127,-2.2617 31.5521,-20.36043 49.3058,-21.76168 23.5776,-1.86092 13.4238,20.06157 52.5263,21.76168 42.4823,1.84706 38.6955,-10.41268 77.3681,-14.4781 29.8186,-3.13465 30.1015,22.92546 61.9749,16.46482 42.2497,-8.56389 27.9194,-16.73304 63.676,-25.21617 30.0726,-7.13459 39.7127,32.82216 75.148,29.27864 35.4353,-3.54353 48.2861,-22.29907 81.9496,-22.29907 33.6636,0 22.0521,20.20238 61.0445,18.75553 47.7486,-1.77176 46.4183,-27.28657 78.013,-26.14656 29.5072,1.06469 15.1566,21.3502 41.7331,24.89373 26.5764,3.54353 37.5478,-14.15567 62.3525,-15.92743 24.8047,-1.77177 30.0662,22.74987 57.3045,20.11583 27.8822,-2.69632 25.2807,-25.25285 60.1695,-29.90506 29.5199,-3.9363 17.9847,25.00122 41.0177,28.54475 23.0329,3.54353 18.5682,-9.61107 54.9247,-17.71765 23.6148,-5.2655 11.8577,14.84753 47.3002,13.22528 18.8566,-0.8631 18.6956,-11.76285 37.726,-12.47295 7.9474,-0.29655 16.2321,12.44636 24.1236,19.12196 L 2999.7507,431.37359 1.2528269,430.62642 Z"
     style="fill:#1e2f39;fill-opacity:1;stroke:none;stroke-width:1px;stroke-linecap:butt;stroke-linejoin:miter;stroke-opacity:1"
     id="path3727-4-9-2" />
</svg>
