<?xml version="1.0" encoding="UTF-8" standalone="no"?>
<!-- Created with Inkscape (http://www.inkscape.org/) -->

<svg
   xmlns:dc="http://purl.org/dc/elements/1.1/"
   xmlns:cc="http://creativecommons.org/ns#"
   xmlns:rdf="http://www.w3.org/1999/02/22-rdf-syntax-ns#"
   xmlns:svg="http://www.w3.org/2000/svg"
   xmlns="http://www.w3.org/2000/svg"
   xmlns:sodipodi="http://sodipodi.sourceforge.net/DTD/sodipodi-0.dtd"
   xmlns:inkscape="http://www.inkscape.org/namespaces/inkscape"
   version="1.1"
   id="svg3713"
   width="3000"
   height="400"
   viewBox="0 0 3000 400"
   sodipodi:docname="layer4.svg"
   inkscape:version="0.92.3 (2405546, 2018-03-11)">
  <metadata
     id="metadata3719">
    <rdf:RDF>
      <cc:Work
         rdf:about="">
        <dc:format>image/svg+xml</dc:format>
        <dc:type
           rdf:resource="http://purl.org/dc/dcmitype/StillImage" />
        <dc:title></dc:title>
      </cc:Work>
    </rdf:RDF>
  </metadata>
  <defs
     id="defs3717" />
  <sodipodi:namedview
     pagecolor="#ffffff"
     bordercolor="#666666"
     borderopacity="1"
     objecttolerance="10"
     gridtolerance="10"
     guidetolerance="10"
     inkscape:pageopacity="0"
     inkscape:pageshadow="2"
     inkscape:window-width="1920"
     inkscape:window-height="1017"
     id="namedview3715"
     showgrid="false"
     showguides="true"
     inkscape:guide-bbox="true"
     inkscape:zoom="1.5963898"
     inkscape:cx="1483.7198"
     inkscape:cy="229.44936"
     inkscape:window-x="-8"
     inkscape:window-y="100"
     inkscape:window-maximized="1"
     inkscape:current-layer="svg3713">
    <sodipodi:guide
       position="1500,481.92"
       orientation="1,0"
       id="guide3723"
       inkscape:locked="false"
       inkscape:label=""
       inkscape:color="rgb(0,0,255)" />
    <sodipodi:guide
       position="1448.2678,322.60291"
       orientation="0,1"
       inkscape:locked="false"
       id="guide3772" />
  </sodipodi:namedview>
  <a
     id="a3744">
    <g
       id="g3750">
      <g
         id="g3755" />
    </g>
  </a>
  <path
     sodipodi:nodetypes="csssssssssssssscssscssssssssssscssscssssscsssssssscccc"
     inkscape:connector-curvature="0"
     d="m 2999.9515,194.3816 c 0,0 -10.9251,-11.31082 -20.6398,-6.08059 -25.7827,13.88115 -31.0464,-19.33526 -46.2988,-16.06118 -26.8674,5.76736 -38.9936,22.99272 -53.6928,23.24545 -14.6992,0.25272 -25.1124,-17.94611 -40.3158,-17.20189 -36.7239,1.79766 -42.7678,20.34358 -65.1141,22.40903 -42.6837,3.94521 -13.4994,-21.8903 -58.9617,-20.44337 -50.7845,1.61634 -53.9065,18.53912 -97.4421,15.68897 -43.4534,-2.84477 -55.9191,-31.58447 -65.8808,-29.36727 -50.58,11.25774 -56.2145,32.41069 -91.6498,28.86717 -35.4353,-3.54352 -32.6257,-22.60305 -66.2892,-22.60305 -33.6636,0 -32.9296,22.60305 -71.9085,20.83128 -38.9788,-1.77176 -43.4207,-19.7925 -64.6065,-18.00319 -36.866,3.11362 -43.3669,17.40343 -71.8193,18.00319 -48.1068,1.01406 -44.2941,-17.71765 -69.0988,-19.48941 -24.8047,-1.77177 -30.8048,30.12 -56.6966,21.26118 -25.8917,-8.85883 -6.5199,-34.76996 -40.7505,-26.57647 -33.2784,7.96555 -38.9788,17.71764 -62.0118,21.26117 -23.0329,3.54353 -18.0247,-12.6286 -54.9247,-17.71765 -33.6375,-4.63909 -22.9888,23.1305 -58.4683,23.03295 -30.1199,-7.08706 -19.048,-14.67994 -40.9655,-24.15986 -14.5607,-6.29785 -35.3068,4.48838 -47.7302,13.72579 -18.189,13.52435 -32.9468,16.67223 -73.3947,7.44636 -26.1357,-5.96136 -37.4432,-23.51421 -47.0669,-21.63892 -22.9419,4.47053 -35.4168,39.93082 -82.0385,36.90623 -26.5796,-1.72435 -46.1329,4.12121 -75.363,-2.88339 -35.9031,-8.60372 -52.7834,-41.60227 -67.7385,-32.53663 -23.0345,13.96327 -28.2069,25.99073 -59.0763,26.07597 -40.2381,0.11112 -32.3974,-18.73575 -47.0668,-12.68789 -17.8893,7.37533 -30.1739,16.85866 -61.2073,18.32562 -55.2063,2.60961 -67.9606,-38.36764 -87.6763,-28.6891 -22.3231,10.95855 -30.6972,16.98375 -51.5777,10.63059 -27.771,-8.85883 -31.9759,-22.94453 -49.3054,-19.25602 -26.4874,5.63772 -34.8065,18.07695 -57.9493,20.81283 -40.5725,4.79635 -31.2653,-12.70635 -54.2983,-12.70635 -23.0329,0 -12.9477,18.76405 -68.4724,11.77595 -30.1199,-7.08706 -18.14756,-21.35021 -44.72406,-21.35021 -26.5764,0 -31.26529,19.47097 -56.06999,23.0145 -24.8047,3.54353 -17.13118,-15.29358 -47.22971,-14.15568 -34.09701,1.28906 -18.73114,22.59019 -43.32674,17.80668 -24.5126,-4.76735 -28.48722,-25.31404 -52.43767,-20.50885 -31.31675,6.28309 -15.4269,16.96532 -54.4056,20.50885 -42.5224,0 -25.12716,-24.28576 -62.33423,-20.74224 -45.89225,4.37069 -25.71664,26.05754 -68.23904,18.97048 -42.52225,-7.08706 -45.19824,-29.57553 -70.56653,-21.45768 -44.29415,14.17411 -32.19572,30.3165 -67.63102,26.77298 -35.4353,-3.54353 -30.12001,-24.80472 -63.78351,-24.80472 -33.6636,0 -38.97882,23.03295 -77.95772,21.26118 -38.9788,-1.77176 -27.72322,-24.05209 -48.57154,-19.88242 -53.152873,10.63059 -47.103709,16.33889 -73.680209,19.88242 -26.5764,3.54353 -16.876246,-12.27643 -41.68094607,-14.04819 L 1.2528269,430.62642 2999.7507,431.37359 Z"
     style="fill:#101a23;fill-opacity:1;stroke:none;stroke-width:1px;stroke-linecap:butt;stroke-linejoin:miter;stroke-opacity:1"
     id="path3727-4-9-9" />
</svg>
