<?xml version="1.0" encoding="UTF-8" standalone="no"?>
<!-- Created with Inkscape (http://www.inkscape.org/) -->

<svg
   xmlns:dc="http://purl.org/dc/elements/1.1/"
   xmlns:cc="http://creativecommons.org/ns#"
   xmlns:rdf="http://www.w3.org/1999/02/22-rdf-syntax-ns#"
   xmlns:svg="http://www.w3.org/2000/svg"
   xmlns="http://www.w3.org/2000/svg"
   xmlns:sodipodi="http://sodipodi.sourceforge.net/DTD/sodipodi-0.dtd"
   xmlns:inkscape="http://www.inkscape.org/namespaces/inkscape"
   version="1.1"
   id="svg3713"
   width="3000"
   height="400"
   viewBox="0 0 3000 400"
   sodipodi:docname="layer5.svg"
   inkscape:version="0.92.3 (2405546, 2018-03-11)">
  <metadata
     id="metadata3719">
    <rdf:RDF>
      <cc:Work
         rdf:about="">
        <dc:format>image/svg+xml</dc:format>
        <dc:type
           rdf:resource="http://purl.org/dc/dcmitype/StillImage" />
        <dc:title></dc:title>
      </cc:Work>
    </rdf:RDF>
  </metadata>
  <defs
     id="defs3717" />
  <sodipodi:namedview
     pagecolor="#ffffff"
     bordercolor="#666666"
     borderopacity="1"
     objecttolerance="10"
     gridtolerance="10"
     guidetolerance="10"
     inkscape:pageopacity="0"
     inkscape:pageshadow="2"
     inkscape:window-width="1920"
     inkscape:window-height="1017"
     id="namedview3715"
     showgrid="false"
     showguides="true"
     inkscape:guide-bbox="true"
     inkscape:zoom="1.5963898"
     inkscape:cx="1483.7198"
     inkscape:cy="229.44936"
     inkscape:window-x="-8"
     inkscape:window-y="100"
     inkscape:window-maximized="1"
     inkscape:current-layer="svg3713">
    <sodipodi:guide
       position="1500,481.92"
       orientation="1,0"
       id="guide3723"
       inkscape:locked="false"
       inkscape:label=""
       inkscape:color="rgb(0,0,255)" />
    <sodipodi:guide
       position="1448.2678,322.60291"
       orientation="0,1"
       inkscape:locked="false"
       id="guide3772" />
  </sodipodi:namedview>
  <a
     id="a3744">
    <g
       id="g3750">
      <g
         id="g3755" />
    </g>
  </a>
  <path
     style="fill:#255989;fill-opacity:1;stroke:none;stroke-width:1.62242103px;stroke-linecap:butt;stroke-linejoin:miter;stroke-opacity:1"
     d="m 1451.9242,71.05883 c 21.0005,-11.559462 34.1361,-12.034377 70.1251,-6.351912 28.9648,4.573382 47.2584,9.908982 57.4214,35.316632 10.1632,25.40767 -7.6833,46.43197 8.3845,56.40501 13.4121,8.32474 39.7114,-2.22067 52.3398,-38.87373 -5.7283,-2.75195 -9.5521,3.59224 -18.0394,-1.52446 -11.3619,-6.84979 -7.1141,-17.27719 -7.1141,-17.27719 0,0 8.8926,4.06522 14.9903,3.55706 6.0979,-0.50814 12.5621,4.00482 13.9744,10.16306 2.9368,-4.25891 3.0143,-10.2103 16.0069,-7.36821 8.1304,1.77853 15.4986,-0.25407 15.4986,-0.25407 -2.1197,24.72599 -20.0872,13.96482 -30.9973,14.48234 0,0 -1.0515,55.3593 -19.818,77.74744 -24.6806,29.44352 -76.2292,17.21743 -110.7775,16.00684 -41.1538,-1.44205 -88.3106,-17.31399 -87.4023,-49.29085 0.9918,-34.9136 0.1088,-78.8123 25.4076,-92.73796 z"
     id="path4671"
     inkscape:connector-curvature="0"
     sodipodi:nodetypes="sscscscccsccssss" />
  <ellipse
     style="fill:#000000;fill-opacity:1;stroke:none;stroke-width:1.47971904"
     id="path4673"
     cx="1493.3386"
     cy="137.24573"
     rx="9.2181082"
     ry="8.8369923" />
  <circle
     style="fill:#ffffff;fill-opacity:1;stroke:none;stroke-width:1.60308433"
     id="path4677"
     cx="1494.4822"
     cy="135.97542"
     r="4.7100849" />
  <ellipse
     style="fill:#efa183;fill-opacity:1;stroke:none;stroke-width:1.70633984"
     id="path4679"
     cx="1499.8187"
     cy="21.983212"
     rx="11.560484"
     ry="3.3029954"
     transform="rotate(5)" />
  <path
     style="fill:#000000;stroke:none;stroke-width:0.16224211;stroke-linecap:butt;stroke-linejoin:miter;stroke-miterlimit:4;stroke-dasharray:none;stroke-opacity:1"
     d="m 1426.4409,163.22191 c 0,0 2.0853,1.62006 5.2394,1.60526 4.7239,-0.0222 8.9672,-2.22637 9.8269,-5.22267 0,0 -3.0544,4.10615 -9.6549,3.81116 -3.0555,-0.1366 -5.2766,-1.85295 -5.2766,-1.85295 z"
     id="path4681"
     inkscape:connector-curvature="0"
     sodipodi:nodetypes="cscscc" />
  <path
     style="fill:none;stroke:#ffffff;stroke-width:1.62242103px;stroke-linecap:butt;stroke-linejoin:miter;stroke-opacity:1"
     d="m 1514.6811,57.592764 c 0.5083,-10.417127 2.2868,-27.186191 -18.5475,-24.8995"
     id="path4683"
     inkscape:connector-curvature="0" />
  <path
     style="fill:none;stroke:#ffffff;stroke-width:1.62242103px;stroke-linecap:butt;stroke-linejoin:miter;stroke-opacity:1"
     d="m 1521.2871,45.39709 c 5.0816,-13.974209 11.1795,-16.006822 23.6291,-14.482363"
     id="path4685"
     inkscape:connector-curvature="0" />
  <path
     style="fill:none;stroke:#ffffff;stroke-width:1.62242103px;stroke-linecap:butt;stroke-linejoin:miter;stroke-opacity:1"
     d="m 1520.0168,26.595425 c 0,-20.580203 -11.1793,-21.342433 -19.8179,-21.342433"
     id="path4687"
     inkscape:connector-curvature="0" />
</svg>
