<?xml version="1.0" encoding="UTF-8" standalone="no"?>
<!-- Created with Inkscape (http://www.inkscape.org/) -->

<svg
   xmlns:dc="http://purl.org/dc/elements/1.1/"
   xmlns:cc="http://creativecommons.org/ns#"
   xmlns:rdf="http://www.w3.org/1999/02/22-rdf-syntax-ns#"
   xmlns:svg="http://www.w3.org/2000/svg"
   xmlns="http://www.w3.org/2000/svg"
   xmlns:sodipodi="http://sodipodi.sourceforge.net/DTD/sodipodi-0.dtd"
   xmlns:inkscape="http://www.inkscape.org/namespaces/inkscape"
   version="1.1"
   id="svg3713"
   width="3000"
   height="400"
   viewBox="0 0 3000 400"
   sodipodi:docname="layer7.svg"
   inkscape:version="0.92.3 (2405546, 2018-03-11)">
  <metadata
     id="metadata3719">
    <rdf:RDF>
      <cc:Work
         rdf:about="">
        <dc:format>image/svg+xml</dc:format>
        <dc:type
           rdf:resource="http://purl.org/dc/dcmitype/StillImage" />
        <dc:title></dc:title>
      </cc:Work>
    </rdf:RDF>
  </metadata>
  <defs
     id="defs3717" />
  <sodipodi:namedview
     pagecolor="#ffffff"
     bordercolor="#666666"
     borderopacity="1"
     objecttolerance="10"
     gridtolerance="10"
     guidetolerance="10"
     inkscape:pageopacity="0"
     inkscape:pageshadow="2"
     inkscape:window-width="1920"
     inkscape:window-height="1017"
     id="namedview3715"
     showgrid="false"
     showguides="true"
     inkscape:guide-bbox="true"
     inkscape:zoom="1.5963898"
     inkscape:cx="1483.7198"
     inkscape:cy="229.44936"
     inkscape:window-x="-8"
     inkscape:window-y="100"
     inkscape:window-maximized="1"
     inkscape:current-layer="svg3713">
    <sodipodi:guide
       position="1500,481.92"
       orientation="1,0"
       id="guide3723"
       inkscape:locked="false"
       inkscape:label=""
       inkscape:color="rgb(0,0,255)" />
    <sodipodi:guide
       position="1448.2678,322.60291"
       orientation="0,1"
       inkscape:locked="false"
       id="guide3772" />
  </sodipodi:namedview>
  <a
     id="a3744">
    <g
       id="g3750">
      <g
         id="g3755" />
    </g>
  </a>
  <path
     sodipodi:nodetypes="cssssssscssscscssssssssscssscsscsscssssssssscssscscccc"
     inkscape:connector-curvature="0"
     d="m 2999.8581,248.22884 c -65.5551,-8.85882 -55.8284,-46.07585 -95.6751,-37.20705 -50.58,11.25774 -33.6636,33.66352 -69.0989,30.12 -35.4353,-3.54352 -30.12,-30.12001 -63.7835,-30.12001 -33.6636,0 -35.4353,30.12001 -74.4142,28.34824 -38.9788,-1.77176 -50.0223,-37.8332 -70.8706,-33.66353 -53.1528,10.63059 -38.9787,30.12 -65.5552,33.66353 -26.5764,3.54353 -44.2941,-17.71765 -69.0988,-19.48941 -24.8047,-1.77177 -30.8048,30.12 -56.6966,21.26118 -25.8917,-8.85883 -6.5199,-34.76996 -40.7505,-26.57647 -33.2784,7.96555 -38.9788,17.71764 -62.0118,21.26117 -23.0329,3.54353 -18.0247,-12.6286 -54.9247,-17.71765 -33.6375,-4.63909 -22.9888,23.1305 -58.4683,23.03295 -30.1199,-7.08706 0.408,-43.83954 -37.2071,-35.4353 -38.2759,8.5519 -24.8046,28.34824 -49.6094,31.89177 -42.5224,0 -19.4894,-15.94588 -60.24,-19.48941 -45.9266,-3.99361 -28.3482,23.03294 -70.8706,15.94588 -42.5223,-7.08706 -46.0658,-28.34824 -72.6423,-30.12 -26.5765,-1.77177 -33.6635,40.75059 -69.0988,37.20707 -35.4353,-3.54353 -37.2071,-21.26119 -70.8706,-21.26119 -33.6636,0 -30.0862,13.46246 -69.0989,14.17412 -40.2316,0.73389 -55.7162,-32.5075 -67.1121,-28.97464 -27.4077,8.49668 -34.5588,24.37562 -56.8224,27.0954 -54.8601,6.70185 -42.2776,-22.7073 -61.9933,-13.02876 -22.3231,10.95855 -34.4557,18.86299 -55.3362,12.50983 -42.8049,-16.37579 -33.1844,-40.38761 -49.3054,-33.03712 -23.3553,10.64903 -34.8065,31.85805 -57.9493,34.59393 -40.5725,4.79635 -31.2653,-12.70635 -54.2983,-12.70635 -23.0329,0 -12.9477,18.76405 -68.4724,11.77595 -30.1199,-7.08706 -10.6306,-30.12 -37.2071,-30.12 -26.5764,0 -31.8917,30.12 -56.6964,33.66353 -24.8047,3.54353 -7.4047,-29.16746 -37.2071,-24.80471 -34.0657,-1.94817 -35.6443,31.35998 -60.2399,26.57647 -24.5126,-4.76735 -4.0571,-47.86492 -44.2943,-33.66353 -30.11986,10.63059 -14.17406,30.12 -53.15276,33.66353 -42.5224,0 -19.48944,-23.03293 -56.69651,-19.48941 -45.89225,4.37069 -40.75056,24.80471 -83.27296,17.71765 -42.52225,-7.08706 -40.18693,-36.46608 -65.55522,-28.34823 -44.29415,14.17411 -37.20703,37.20705 -72.64233,33.66353 -35.4353,-3.54353 -30.12001,-24.80472 -63.78351,-24.80472 -33.6636,0 -38.97882,23.03295 -77.95772,21.26118 -38.9788,-1.77176 -25.21757,-37.83319 -46.06589,-33.66352 -53.15287,10.63059 -49.60936,30.11999 -76.18586,33.66352 -26.5764,3.54353 -21.26114,-24.8047 -46.06584,-26.57646 -24.8047,-1.77177 -41.43533,28.34823 -67.32713,19.48941 -25.8917,-8.85883 -6.51994,-41.85702 -40.75056,-33.66353 -33.27837,7.96555 -44.29409,31.89176 -67.32709,35.43529 -23.0329,3.54353 -18.0247,-12.6286 -54.9247,-17.71765 -33.63742,-4.63909 -21.21695,19.58697 -56.69645,19.48942 -30.119898,-7.08706 -1.36383,-40.29601 -38.978863,-31.89177 -38.2758847,8.5519 -19.274395,30.63894 -44.07909518,34.18247 L 1.2528269,430.62642 2999.7507,431.37359 Z"
     style="fill:#16222e;fill-opacity:1;stroke:none;stroke-width:1px;stroke-linecap:butt;stroke-linejoin:miter;stroke-opacity:1"
     id="path3727-4-9" />
</svg>
